# xmcd CD database file
#
# Track frame offsets:
#	150
#	18632
#	39835
#	58332
#
# Disc length: 1059 seconds
#
# Revision: 0
# Processed by: cddbd v1.5PL3 Copyright (c) Steve Scherf et al.
# Submitted via: CDex 1.50beta9
#
DISCID=2e042104
DTITLE=田村直美 - 永遠の一秒
DYEAR=1994
DGENRE=J-POP
TTITLE0=永遠の一秒
TTITLE1=真夏の雨
TTITLE2=永遠の一秒　カラオケ
TTITLE3=真夏の雨　カラオケ
EXTD=YEAR: 1994
EXTT0=
EXTT1=
EXTT2=
EXTT3=
PLAYORDER=
